# Blender v2.79 (sub 0) OBJ File: ''
# www.blender.org
mtllib co.mtl
o Cube.001
v 10.000000 -1.003117 -3.000000
v 10.000000 -1.003117 3.000000
v -10.000001 -1.003117 3.000000
v -9.999996 -1.003117 -3.000001
v 10.000005 0.996883 -2.999998
v -9.999999 0.996883 -3.000000
v -10.000004 0.996883 2.999999
v 9.999993 0.996883 3.000002
vn 0.0000 -1.0000 -0.0000
vn -0.0000 1.0000 0.0000
vn 1.0000 0.0000 0.0000
vn -0.0000 -0.0000 1.0000
vn -1.0000 -0.0000 -0.0000
vn 0.0000 0.0000 -1.0000
usemtl Material.002
s 1
f 1//1 2//1 3//1 4//1
f 5//2 6//2 7//2 8//2
f 1//3 5//3 8//3 2//3
f 2//4 8//4 7//4 3//4
f 3//5 7//5 6//5 4//5
f 5//6 1//6 4//6 6//6
