# Blender v2.79 (sub 0) OBJ File: ''
# www.blender.org
mtllib corner.mtl
o Cube.005
v -3.000000 -1.000000 -0.999999
v 3.000000 -1.000000 -0.999999
v 3.000000 -1.000000 0.999999
v -3.000001 -1.000000 0.999999
v -2.999999 1.000000 -1.000005
v -3.000000 1.000000 0.999999
v 2.999999 1.000000 0.999999
v 3.000001 1.000000 -0.999992
v 3.000006 1.000003 -6.999986
v -2.999994 1.000003 -6.999998
v 3.000002 -1.000003 12.999986
v -2.999999 -1.000003 12.999986
v -2.999996 -0.999997 -6.999991
v 3.000004 -0.999997 -6.999995
v 2.999987 -0.999987 -1.000020
v 3.000015 -0.999985 -7.000014
v 9.000015 -1.000004 -6.999984
v 8.999987 -1.000007 -0.999991
v 3.000001 0.999997 12.999986
v -2.999998 0.999997 12.999986
v 3.000022 1.000015 -7.000003
v 2.999994 1.000013 -1.000012
v 8.999993 0.999993 -0.999984
v 9.000022 0.999996 -6.999975
vt 0.000000 0.000000
vt 1.000000 0.000000
vt 1.000000 1.000000
vt 0.000000 1.000000
vt 0.000000 0.000000
vt 1.000000 0.000000
vt 1.000000 1.000000
vt 0.000000 1.000000
vt 1.000000 0.000000
vt 1.000000 1.000000
vt 0.000000 1.000000
vt 0.000000 0.000000
vt 0.000000 1.000000
vt 0.000000 0.000000
vt 1.000000 0.000000
vt 1.000000 1.000000
vt 0.000000 1.000000
vt 1.000000 0.000000
vt 1.000000 1.000000
vt 0.000000 1.000000
vt 0.000000 0.000000
vt 1.000000 0.000000
vt 0.000000 1.000000
vt 0.000000 0.000000
vt 1.000000 0.000000
vt 1.000000 1.000000
vt 0.000000 1.000000
vt 1.000000 0.000000
vt 1.000000 1.000000
vt 0.000000 1.000000
vt 1.000000 1.000000
vt 0.000000 0.000000
vt 1.000000 0.000000
vt 1.000000 1.000000
vt 0.000000 0.000000
vt 1.000000 0.000000
vt 1.000000 1.000000
vt 0.000000 1.000000
vt 0.000000 0.000000
vt 0.000000 1.000000
vt 0.000000 0.000000
vt 1.000000 0.000000
vt 1.000000 1.000000
vt 0.000000 1.000000
vt 0.000000 0.000000
vt 1.000000 0.000000
vt 1.000000 1.000000
vt 0.000000 1.000000
vt 0.000000 0.000000
vt 1.000000 0.000000
vt 1.000000 1.000000
vt 0.000000 1.000000
vt 1.000000 0.000000
vt 1.000000 1.000000
vt 0.000000 1.000000
vt 0.000000 0.000000
vt 1.000000 1.000000
vt 0.000000 1.000000
vt 0.000000 0.000000
vt 1.000000 0.000000
vn 0.0000 -1.0000 -0.0000
vn -0.0000 1.0000 0.0000
vn 1.0000 -0.0000 0.0000
vn -1.0000 0.0000 -0.0000
vn 0.0000 0.0000 -1.0000
vn 0.0000 0.0000 1.0000
usemtl Material.001
s 1
f 1/1/1 2/2/1 3/3/1 4/4/1
f 5/5/2 6/6/2 7/7/2 8/8/2
f 5/5/2 8/9/2 9/10/2 10/11/2
f 2/12/3 8/9/3 7/7/3 3/13/3
f 4/14/1 3/15/1 11/16/1 12/17/1
f 5/5/4 1/18/4 4/19/4 6/20/4
f 13/21/5 10/22/5 9/10/5 14/23/5
f 15/24/1 16/25/1 17/26/1 18/27/1
f 1/1/4 5/28/4 10/29/4 13/30/4
f 2/12/1 1/18/1 13/31/1 14/23/1
f 11/32/6 19/33/6 20/34/6 12/17/6
f 3/35/3 7/36/3 19/37/3 11/38/3
f 7/39/2 6/6/2 20/34/2 19/40/2
f 6/41/4 4/42/4 12/43/4 20/44/4
f 21/45/2 22/46/2 23/47/2 24/48/2
f 22/49/6 15/50/6 18/51/6 23/52/6
f 22/49/4 21/53/4 16/54/4 15/55/4
f 16/56/5 21/53/5 24/57/5 17/58/5
f 23/59/3 18/60/3 17/26/3 24/48/3
o Cube
v 1.000000 -1.000000 -1.000000
v 1.000000 -1.000000 1.000000
v -1.000000 -1.000000 1.000000
v -1.000000 -1.000000 -1.000000
v 1.000000 1.000000 -0.999999
v 0.999999 1.000000 1.000001
v -1.000000 1.000000 1.000000
v -1.000000 1.000000 -1.000000
vn 0.0000 -1.0000 0.0000
vn 0.0000 1.0000 0.0000
vn 1.0000 0.0000 0.0000
vn -0.0000 -0.0000 1.0000
vn -1.0000 -0.0000 -0.0000
vn 0.0000 0.0000 -1.0000
usemtl Material
s off
f 25//7 26//7 27//7 28//7
f 29//8 32//8 31//8 30//8
f 25//9 29//9 30//9 26//9
f 26//10 30//10 31//10 27//10
f 27//11 31//11 32//11 28//11
f 29//12 25//12 28//12 32//12