# Blender v2.79 (sub 0) OBJ File: 'corner.obj'
# www.blender.org
mtllib corner.mtl
o Cube.005
v -3.000000 -1.000000 -0.999999
v 3.000000 -1.000000 -0.999999
v 3.000000 -1.000000 0.999999
v -3.000001 -1.000000 0.999999
v -2.999999 1.000000 -1.000005
v -3.000000 1.000000 0.999999
v 2.999999 1.000000 0.999999
v 3.000001 1.000000 -0.999992
v 3.000006 1.000003 -6.999986
v -2.999994 1.000003 -6.999998
v 3.000002 -1.000002 12.999986
v -2.999999 -1.000002 12.999986
v -2.999996 -0.999997 -6.999991
v 3.000004 -0.999997 -6.999995
v 2.999987 -0.999987 -1.000020
v 3.000015 -0.999985 -7.000014
v 9.000015 -1.000004 -6.999984
v 8.999987 -1.000007 -0.999991
v 3.000001 0.999998 12.999986
v -2.999998 0.999998 12.999986
v 3.000022 1.000015 -7.000003
v 2.999994 1.000013 -1.000012
v 8.999993 0.999993 -0.999984
v 9.000022 0.999996 -6.999975
vn 0.0000 -1.0000 0.0000
vn -0.0000 1.0000 0.0000
vn 1.0000 -0.0000 0.0000
vn -1.0000 0.0000 -0.0000
vn 0.0000 0.0000 -1.0000
vn 0.0000 0.0000 1.0000
usemtl Material.005
s 1
f 1//1 2//1 3//1 4//1
f 5//2 6//2 7//2 8//2
f 5//2 8//2 9//2 10//2
f 2//3 8//3 7//3 3//3
f 4//1 3//1 11//1 12//1
f 5//4 1//4 4//4 6//4
f 13//5 10//5 9//5 14//5
f 15//1 16//1 17//1 18//1
f 1//4 5//4 10//4 13//4
f 2//1 1//1 13//1 14//1
f 11//6 19//6 20//6 12//6
f 3//3 7//3 19//3 11//3
f 7//2 6//2 20//2 19//2
f 6//4 4//4 12//4 20//4
f 21//2 22//2 23//2 24//2
f 22//6 15//6 18//6 23//6
f 22//4 21//4 16//4 15//4
f 16//5 21//5 24//5 17//5
f 23//3 18//3 17//3 24//3
