# Blender v2.79 (sub 0) OBJ File: ''
# www.blender.org
mtllib cornerRightWall.mtl
o Cube.010
v 3.000000 -0.999998 -3.094067
v 3.000001 1.000002 -3.094060
v 4.000001 1.000002 -3.081890
v 4.000000 -0.999998 -3.106873
v 3.000000 6.000000 -3.094057
v 4.000000 6.000000 -3.106863
v 3.000006 1.000008 -9.999987
v 3.000008 1.000008 -10.999987
v 3.000015 6.000008 -10.999983
v 3.000013 6.000004 -9.999983
v 3.000004 -0.999994 -9.999995
v 3.000006 -0.999993 -10.999995
v -3.000000 -0.999998 -3.999999
v 3.000000 -1.000000 -2.000001
v -3.000001 -1.000000 -2.000001
v -2.999999 1.000002 -4.000005
v -3.000000 1.000000 -2.000001
v 2.999999 1.000000 -2.000001
v -2.999994 1.000009 -9.999998
v 3.000002 -1.000009 9.999986
v 4.000000 -1.000000 -2.000001
v 4.000002 -1.000008 9.999986
v -2.999999 -1.000008 9.999986
v -2.999996 -0.999992 -9.999990
v -4.000000 -0.999997 -4.000000
v -3.999996 -0.999991 -9.999990
v -3.999994 1.000009 -9.999998
v -3.999992 1.000009 -10.999998
v -3.999994 -0.999991 -10.999990
v -3.999998 0.999994 9.999986
v -2.999998 0.999994 9.999986
v -2.999995 5.999996 9.999989
v -3.999995 5.999996 9.999989
v 3.000001 0.999992 9.999986
v -2.999994 -0.999991 -10.999990
v 2.999994 1.000015 -3.094080
v 3.000015 -0.999982 -10.000013
v 2.999987 -0.999985 -3.094088
v 3.999999 1.000000 -2.000001
v 4.000001 0.999992 9.999986
v 3.000000 5.999993 9.999989
v 2.999998 6.000000 -1.999998
v 4.000000 5.999993 9.999989
v 3.999998 6.000000 -1.999998
v -3.999999 1.000003 -4.000005
v -4.000001 -0.999999 -2.000001
v -4.000000 1.000001 -2.000001
v -3.999999 -1.000006 9.999986
v -2.999996 6.000000 -4.000000
v -2.999997 6.000000 -1.999997
v -3.999991 6.000009 -9.999995
v -2.999991 6.000007 -9.999995
v -3.999996 6.000000 -4.000000
v -3.999997 6.000000 -1.999998
v -2.999992 1.000009 -10.999998
v 3.000017 -0.999981 -11.000013
v -3.999987 6.000009 -9.999994
v -2.999987 6.000007 -9.999994
v -2.999985 6.000010 -10.999994
v -3.999985 6.000010 -10.999994
v 3.000012 6.000013 -3.094059
vt 0.631579 0.750000
vt 0.631579 0.694444
vt 0.657895 0.694444
vt 0.657895 0.750000
vt 0.631579 0.555555
vt 0.657895 0.555555
vt 0.578947 0.611111
vt 0.605263 0.611111
vt 0.605263 0.750000
vt 0.578948 0.750000
vt 0.578948 0.555555
vt 0.605263 0.555555
vt 0.184210 0.388889
vt 0.026316 0.388889
vt 0.026316 0.333333
vt 0.184210 0.333333
vt 0.394737 0.388889
vt 0.394737 0.333333
vt 0.552631 0.333333
vt 0.552632 0.388888
vt 0.552632 0.555555
vt 0.394737 0.555555
vt 0.026316 0.000000
vt 0.000000 0.333333
vt 0.000000 0.000000
vt 0.184210 0.000000
vt 0.184210 0.555555
vt 0.210526 0.388889
vt 0.210526 0.555555
vt 0.394737 0.027778
vt 0.342105 0.027778
vt 0.342105 0.000000
vt 0.394737 0.000000
vt 0.315789 0.583333
vt 0.315789 0.611111
vt 0.184211 0.611111
vt 0.184211 0.583333
vt 0.026316 0.555555
vt 0.368421 0.777777
vt 0.315789 0.777777
vt 0.368421 0.611111
vt 0.394737 0.000000
vt 0.552632 0.000000
vt 0.210526 0.583333
vt 0.184210 0.583333
vt 0.684211 0.000000
vt 0.736842 0.000000
vt 0.736842 0.055555
vt 0.684211 0.055555
vt 0.736842 0.388889
vt 0.684211 0.388889
vt 0.368421 0.805555
vt 0.315789 0.805555
vt 0.815790 0.444444
vt 0.815789 0.777777
vt 0.684211 0.777777
vt 0.684211 0.444444
vt 0.000000 0.388889
vt 0.184211 0.805555
vt 0.184211 0.777777
vt 0.368421 0.916666
vt 0.368421 0.583333
vt 0.394737 0.583333
vt 0.394737 0.916666
vt 0.368421 0.972221
vt 0.394737 0.972221
vt 0.815790 0.388889
vt 0.684211 0.388889
vt 0.868421 0.055556
vt 0.868421 0.388889
vt 0.868421 0.000000
vt 0.342105 0.194444
vt 0.394737 0.194444
vt 0.394737 0.250000
vt 0.342105 0.250000
vt 0.394737 0.583333
vt 0.342105 0.583333
vt 0.552632 0.222222
vt 0.552632 0.166666
vt 0.684211 0.166667
vt 0.684211 0.222222
vt 0.210526 0.000000
vt 0.210526 0.333333
vt 0.368421 0.583333
vt 0.342105 0.944444
vt 0.315789 0.944444
vt 0.315789 0.805555
vt 0.342105 0.805556
vt 0.973684 0.722222
vt 0.973684 0.777777
vt 0.947369 0.777777
vt 0.947368 0.722222
vt 0.973684 0.944444
vt 0.947369 0.944444
vt 0.973684 0.388889
vt 0.947369 0.388889
vt 0.210526 0.194444
vt 0.210526 0.027778
vt 0.552632 0.000000
vt 0.684211 0.000000
vt 0.210526 0.583333
vt 0.210526 0.250000
vt 0.552632 0.555555
vt 0.684211 0.555555
vt 0.421053 0.972223
vt 0.421053 0.916667
vt 0.578947 0.916667
vt 0.578947 0.972222
vt 0.394737 0.972223
vt 0.394737 0.916667
vt 0.026316 0.583333
vt 0.631579 0.555555
vt 0.631579 0.583333
vt 0.605263 0.583333
vt 0.605263 0.555555
vt 0.631579 0.750000
vt 0.394737 0.777778
vt 0.421053 0.777778
vt 0.815790 0.583333
vt 0.815790 0.555555
vt 0.947368 0.555555
vt 0.947368 0.583333
vt 0.526316 0.750000
vt 0.578947 0.750000
vt 0.000000 0.000000
vt 0.000000 0.000000
vt 0.578947 0.777778
vt 0.815790 0.388889
vt 0.947368 0.388889
vt 0.210526 0.027778
vt 0.210526 0.000000
vn -0.0003 0.0062 -1.0000
vn -0.0003 -0.0025 -1.0000
vn 1.0000 -0.0000 0.0000
vn -0.0000 -1.0000 -0.0000
vn 0.0000 1.0000 0.0000
vn 0.0000 -0.7071 0.7071
vn -0.4472 -0.8944 -0.0000
vn -1.0000 0.0000 -0.0000
vn -0.7071 -0.0000 -0.7071
vn -0.5774 -0.5774 -0.5773
vn -0.4472 0.0000 0.8944
vn 0.4472 -0.0000 0.8944
vn 0.5774 0.5773 0.5774
vn -0.5773 0.5774 0.5774
vn 0.0000 0.0000 1.0000
vn -0.0000 -0.7071 -0.7071
vn -0.5774 0.5773 0.5774
vn 0.5774 0.5774 0.5774
vn -0.5773 0.5774 -0.5773
vn 0.5774 0.5774 -0.5773
vn 0.0000 0.0000 -1.0000
vn -0.5774 0.5774 0.5774
vn 0.0000 0.7071 0.7071
vn 0.0000 0.7071 -0.7071
vn -0.5773 0.5774 -0.5774
usemtl Material.011
s off
f 1/1/1 2/2/1 3/3/1 4/4/1
f 3/3/2 2/2/2 5/5/2 6/6/2
f 7/7/3 8/8/3 9/9/3 10/10/3
f 7/7/3 11/11/3 12/12/3 8/8/3
s 1
f 13/13/4 1/14/4 14/15/4 15/16/4
f 16/17/5 17/18/5 18/19/5 2/20/5
f 16/17/5 2/20/5 7/21/5 19/22/5
f 20/23/6 14/15/4 21/24/4 22/25/6
f 15/16/4 14/15/4 20/23/4 23/26/4
f 24/27/4 13/13/4 25/28/4 26/29/7
f 26/30/7 27/31/8 28/32/9 29/33/10
f 30/34/11 31/35/12 32/36/13 33/37/14
f 1/14/4 13/13/4 24/27/4 11/38/4
f 20/39/15 34/40/15 31/35/15 23/41/15
f 18/19/5 17/18/5 31/42/5 34/43/5
f 24/27/4 26/29/7 29/44/10 35/45/16
f 4/46/3 3/47/3 39/48/3 21/49/3
f 21/49/3 39/48/3 40/50/3 22/51/3
f 34/40/11 20/39/6 22/52/6 40/53/12
f 18/54/8 34/55/11 41/56/17 42/57/8
f 14/15/4 1/14/4 4/58/4 21/24/4
f 34/40/11 40/53/12 43/59/18 41/60/17
f 42/61/5 41/62/17 43/63/18 44/64/5
f 5/65/5 42/61/5 44/64/5 6/66/5
f 2/67/8 18/54/8 42/57/8 5/68/8
f 40/50/12 39/48/3 44/69/3 43/70/18
f 39/48/3 3/47/3 6/71/3 44/69/3
f 45/72/8 25/73/8 46/74/8 47/75/8
f 25/73/8 45/72/8 27/31/8 26/30/8
f 47/75/8 46/74/8 48/76/8 30/77/8
f 17/78/3 16/79/3 49/80/3 50/81/3
f 15/16/4 23/26/6 48/82/6 46/83/4
f 23/41/6 31/35/12 30/34/11 48/84/6
f 19/85/3 27/86/8 51/87/19 52/88/20
f 13/13/4 15/16/4 46/83/4 25/28/4
f 50/89/5 49/90/5 53/91/5 54/92/5
f 49/90/5 52/93/20 51/94/19 53/91/5
f 32/95/13 50/89/5 54/92/5 33/96/14
f 27/31/8 45/72/8 53/97/8 51/98/19
f 16/79/3 19/99/3 52/100/20 49/80/3
f 47/75/8 30/77/11 33/101/14 54/102/8
f 31/103/12 17/78/3 50/81/3 32/104/13
f 45/72/8 47/75/8 54/102/8 53/97/8
f 35/105/21 55/106/21 8/107/21 12/108/21
f 55/106/21 35/105/16 29/109/10 28/110/9
f 11/38/4 24/27/4 35/45/4 12/111/4
f 57/112/22 58/113/23 59/114/24 60/115/25
f 58/113/5 10/116/5 9/9/5 59/114/5
f 55/106/21 28/110/9 60/117/25 59/118/24
f 27/119/8 19/120/3 58/121/23 57/122/22
f 36/123/3 38/124/3 37/125/3 7/126/3
f 8/107/21 55/106/21 59/118/21 9/127/21
f 19/120/15 7/128/15 10/129/15 58/121/15
f 28/32/9 27/31/8 57/130/22 60/131/25
l 37 56
l 36 61
