# Blender v2.79 (sub 0) OBJ File: ''
# www.blender.org
mtllib cornerLeftWall.mtl
o Cube.005
v -3.000000 1.000002 -3.088088
v -3.000001 -0.999998 -3.088080
v -4.000001 -0.999998 -3.083895
v -4.000000 1.000002 -3.083903
v -3.000006 -0.999999 -9.999987
v -3.000004 1.000001 -9.999995
v -3.000006 1.000000 -10.999995
v -3.000008 -1.000000 -10.999987
v -2.999997 6.000000 -9.999996
v -2.999999 6.000000 -10.999996
v -3.999995 6.000000 -3.083907
v -2.999995 6.000000 -3.088092
v 3.000000 1.000002 -3.999999
v -3.000000 1.000000 -2.000001
v 3.000001 1.000000 -2.000001
v 2.999999 -0.999998 -4.000005
v 3.000000 -1.000000 -2.000001
v -2.999999 -1.000000 -2.000001
v 2.999994 -1.000000 -9.999998
v -3.000002 1.000000 9.999986
v 2.999999 0.999999 9.999986
v 2.999998 -1.000001 9.999986
v 3.999998 -1.000001 9.999986
v 3.999999 0.999999 9.999986
v 3.000004 6.000000 -2.000000
v 3.000003 6.000000 -3.999998
v 2.999996 1.000000 -9.999990
v -3.000001 -1.000000 9.999986
v -3.999999 -1.000000 -2.000001
v 3.999994 -1.000000 -9.999998
v 3.999999 -0.999999 -4.000005
v -2.999994 -1.000011 -3.088100
v -3.000022 -1.000010 -10.000003
v -3.000015 0.999989 -10.000013
v -2.999987 0.999989 -3.088109
v 2.999992 -1.000000 -10.999998
v 3.999992 -1.000000 -10.999998
v 4.000000 1.000001 -4.000000
v 4.000001 0.999999 -2.000001
v 4.000000 -1.000001 -2.000001
v 3.999996 1.000000 -9.999991
v 3.000002 6.000000 9.999987
v 3.999994 0.999999 -10.999991
v 4.000004 6.000000 -2.000001
v 4.000002 5.999999 9.999987
v 4.000003 6.000000 -3.999999
v 2.999999 6.000000 -9.999990
v 3.999999 6.000000 -9.999991
v 2.999994 1.000000 -10.999990
v 3.000001 6.000000 -10.999992
v -3.000017 0.999988 -11.000013
v 3.000003 6.000000 -9.999992
v 4.000002 6.000000 -9.999992
v 4.000000 6.000000 -10.999992
v -4.000000 1.000000 -2.000001
v -4.000001 -1.000000 9.999986
v -4.000002 1.000000 9.999986
v -2.999997 6.000000 9.999981
v -2.999995 6.000000 -2.000006
v -3.999995 6.000000 -2.000006
v -3.999997 6.000000 9.999981
v -2.999982 5.999990 -3.088113
vt 0.591230 0.526523
vt 0.591230 0.568644
vt 0.564519 0.568644
vt 0.564519 0.526523
vt 0.616890 0.421218
vt 0.616890 0.463340
vt 0.591230 0.463340
vt 0.591231 0.421218
vt 0.616890 0.568644
vt 0.591231 0.568644
vt 0.564519 0.421218
vt 0.591230 0.421218
vt 0.384899 0.126365
vt 0.538859 0.126365
vt 0.538859 0.168487
vt 0.384899 0.168487
vt 0.025660 0.294853
vt 0.025660 0.252731
vt 0.179620 0.252731
vt 0.179620 0.294852
vt 0.179620 0.421218
vt 0.025660 0.421218
vt 0.538859 0.421218
vt 0.384900 0.421218
vt 0.051320 0.463340
vt 0.000000 0.463340
vt 0.000000 0.442279
vt 0.051320 0.442279
vt 0.667159 0.126365
vt 0.667159 0.168487
vt 0.538859 0.168487
vt 0.538859 0.126365
vt 0.384900 0.000000
vt 0.538859 0.000000
vt 0.051320 0.589705
vt 0.000000 0.589705
vt 0.205280 0.252731
vt 0.205280 0.284374
vt 0.025660 0.000000
vt 0.179620 0.000000
vt 0.000000 0.421218
vt 0.000000 0.294853
vt 0.384899 0.568422
vt 0.436219 0.568422
vt 0.436219 0.442247
vt 0.384899 0.442247
vt 0.025660 0.442279
vt 0.000000 0.442279
vt 0.384899 0.294408
vt 0.333579 0.294407
vt 0.333580 0.252349
vt 0.384899 0.252349
vt 0.384899 0.420582
vt 0.333580 0.420582
vt 0.333580 0.000000
vt 0.384899 0.000000
vt 0.000000 0.252731
vt 0.000000 0.000000
vt 0.667159 0.421218
vt 0.538859 0.421218
vt 0.384899 0.441611
vt 0.333580 0.441611
vt 0.205280 0.252349
vt 0.205280 0.000000
vt 1.000000 0.747269
vt 1.000000 1.000000
vt 0.974340 1.000000
vt 0.974340 0.747269
vt 1.000000 0.705148
vt 0.974340 0.705147
vt 1.000000 0.578782
vt 0.974340 0.578782
vt 0.179620 0.442279
vt 0.179620 0.463340
vt 0.205280 0.420582
vt 0.205280 0.294407
vt 0.667159 0.000000
vt 0.538859 0.000000
vt 0.359345 0.441611
vt 0.384899 0.441611
vt 0.384899 0.546916
vt 0.359345 0.546916
vt 0.820486 0.684087
vt 0.820486 0.726209
vt 0.667159 0.726209
vt 0.667159 0.684087
vt 0.846040 0.684087
vt 0.846040 0.726209
vt 0.667159 0.578782
vt 0.820486 0.578782
vt 0.179620 0.442279
vt 0.616890 0.442279
vt 0.616890 0.421218
vt 0.642550 0.421218
vt 0.642550 0.442279
vt 0.642550 0.568644
vt 0.846040 0.578782
vt 0.538859 0.611029
vt 0.538859 0.589968
vt 0.667159 0.589968
vt 0.667159 0.611028
vt 0.538859 0.737394
vt 0.667159 0.737394
vt 0.205280 0.441611
vt 0.205280 0.420582
vt 0.795459 0.000000
vt 0.846779 0.000000
vt 0.846779 0.031644
vt 0.795459 0.031644
vt 0.846779 0.284375
vt 0.795459 0.284375
vt 0.051320 0.610766
vt 0.000000 0.610766
vt 0.205280 0.000000
vt 0.949419 0.410740
vt 0.949419 0.158009
vt 0.975079 0.158009
vt 0.975079 0.410740
vt 0.949419 0.115888
vt 0.975079 0.126366
vt 0.667159 0.031644
vt 0.667159 0.000000
vt 0.179620 0.589705
vt 0.179620 0.610766
vt 0.667159 0.578782
vt 0.667159 0.326433
vt 0.795459 0.326433
vt 0.795459 0.578782
vt 0.667159 0.284375
vt 0.795459 0.284375
vt 0.667159 0.284374
vn -0.0042 -0.0000 -1.0000
vn -1.0000 0.0000 0.0000
vn 0.0000 1.0000 0.0000
vn -0.0000 -1.0000 -0.0000
vn -0.4472 0.0000 0.8944
vn -0.0000 -0.7071 0.7071
vn 0.4472 -0.0000 0.8944
vn 0.0000 0.0000 1.0000
vn 0.4472 -0.8944 -0.0000
vn -0.0000 -0.7071 -0.7071
vn 0.5773 -0.5774 -0.5774
vn 1.0000 -0.0000 -0.0000
vn -0.5773 0.5774 0.5774
vn 0.7071 0.0000 -0.7071
vn 0.5774 0.5773 0.5774
vn -0.5774 0.5774 -0.5773
vn 0.5774 0.5774 -0.5774
vn 0.0000 -0.0000 -1.0000
vn 0.0000 0.7071 0.7071
vn 0.5774 0.5774 0.5773
vn 0.5773 0.5773 -0.5774
vn -0.0000 0.7071 -0.7071
vn -0.5774 0.5774 0.5774
usemtl Material.001
s off
f 1/1/1 2/2/1 3/3/1 4/4/1
f 5/5/2 6/6/2 7/7/2 8/8/2
f 7/7/2 6/6/2 9/9/2 10/10/2
f 1/1/1 4/4/1 11/11/1 12/12/1
s 1
f 13/13/3 1/14/3 14/15/3 15/16/3
f 16/17/4 17/18/4 18/19/4 2/20/4
f 16/17/4 2/20/4 5/21/4 19/22/4
f 15/16/3 14/15/3 20/23/3 21/24/3
f 21/25/5 22/26/6 23/27/6 24/28/7
f 13/29/2 15/30/2 25/31/2 26/32/2
f 1/14/3 13/13/3 27/33/3 6/34/3
f 20/35/8 28/36/8 22/26/8 21/25/8
f 2/20/4 18/19/4 29/37/4 3/38/4
f 18/19/4 17/18/4 22/39/4 28/40/4
f 16/17/4 19/22/4 30/41/9 31/42/4
f 32/43/2 35/44/2 34/45/2 33/46/2
f 30/41/9 19/22/4 36/47/10 37/48/11
f 31/49/12 38/50/12 39/51/12 40/52/12
f 38/50/12 31/49/12 30/53/12 41/54/12
f 40/52/12 39/51/12 24/55/12 23/56/12
f 22/39/6 17/18/4 40/57/4 23/58/6
f 15/30/2 21/59/5 42/60/13 25/31/2
f 41/54/12 30/53/9 37/61/11 43/62/14
f 17/18/4 16/17/4 31/42/4 40/57/4
f 24/55/7 39/51/12 44/63/12 45/64/15
f 25/65/3 42/66/13 45/67/15 44/68/3
f 26/69/3 25/65/3 44/68/3 46/70/3
f 47/71/16 26/69/3 46/70/3 48/72/17
f 21/25/5 24/28/7 45/73/15 42/74/13
f 38/50/12 41/54/12 48/75/17 46/76/12
f 27/77/2 13/29/2 26/32/2 47/78/16
f 41/79/12 27/80/2 47/81/16 48/82/17
f 39/51/12 38/50/12 46/76/12 44/63/12
f 49/83/18 36/84/18 8/85/18 7/86/18
f 36/84/10 49/83/18 43/87/14 37/88/11
f 49/83/18 7/86/18 10/89/18 50/90/18
f 19/22/4 5/21/4 8/91/4 36/47/4
f 52/92/19 53/93/20 54/94/21 50/95/22
f 9/9/3 52/92/3 50/95/3 10/96/3
f 43/87/14 49/83/18 50/90/22 54/97/21
f 27/98/2 41/99/12 53/100/20 52/101/19
f 6/102/8 27/98/8 52/101/8 9/103/8
f 41/54/12 43/62/14 54/104/21 53/105/20
f 4/106/2 3/107/2 29/108/2 55/109/2
f 55/109/2 29/108/2 56/110/2 57/111/2
f 28/36/6 20/35/7 57/112/5 56/113/6
f 18/19/4 28/40/6 56/114/6 29/37/4
f 58/115/20 59/116/3 60/117/3 61/118/23
f 59/116/3 12/119/3 11/120/3 60/117/3
f 4/106/2 55/109/2 60/121/2 11/122/2
f 57/112/5 20/35/7 58/123/20 61/124/23
f 20/125/7 14/126/12 59/127/12 58/128/20
f 14/126/12 1/129/12 12/130/12 59/127/12
f 55/109/2 57/111/5 61/131/23 60/121/2
l 34 51
l 35 62
