# Blender v2.79 (sub 0) OBJ File: 'corner_right.blend'
# www.blender.org
mtllib corner_right.mtl
o Cube
v 1.000000 -1.000000 -3.000000
v 1.000000 -1.000000 3.000000
v -1.000000 -1.000000 3.000000
v -1.000000 -1.000000 -3.000001
v 1.000006 1.000000 -2.999999
v 0.999993 1.000000 3.000001
v -1.000000 1.000000 2.999999
v -1.000000 1.000000 -3.000000
v 7.000000 -0.999997 -2.999994
v 7.000002 -0.999997 3.000006
v 7.000006 1.000003 -2.999992
v 6.999993 1.000003 3.000008
v -13.000000 -1.000002 2.999999
v -13.000000 -1.000002 -3.000002
v -13.000000 0.999998 2.999998
v -13.000000 0.999998 -3.000001
v 6.999990 -1.000004 9.000017
v 0.999983 0.999993 8.999993
v 0.999990 -1.000007 8.999987
v 6.999981 0.999996 9.000024
v 1.000021 -0.999987 2.999987
v 1.000013 1.000013 2.999994
v 7.000021 -0.999985 3.000017
v 7.000011 1.000015 3.000024
vn 0.0000 -1.0000 0.0000
vn 0.0000 1.0000 0.0000
vn -0.0000 -0.0000 1.0000
vn 0.0000 0.0000 -1.0000
vn 1.0000 0.0000 0.0000
vn -1.0000 0.0000 0.0000
usemtl Material
s off
f 1//1 2//1 3//1 4//1
f 5//2 8//2 7//2 6//2
f 5//2 6//2 12//2 11//2
f 2//3 6//3 7//3 3//3
f 4//1 3//1 13//1 14//1
f 5//4 1//4 4//4 8//4
f 9//5 11//5 12//5 10//5
f 21//1 23//1 17//1 19//1
f 1//4 5//4 11//4 9//4
f 2//1 1//1 9//1 10//1
f 13//6 15//6 16//6 14//6
f 3//3 7//3 15//3 13//3
f 7//2 8//2 16//2 15//2
f 8//4 4//4 14//4 16//4
f 24//2 22//2 18//2 20//2
f 22//6 21//6 19//6 18//6
f 22//4 24//4 23//4 21//4
f 23//5 24//5 20//5 17//5
f 18//3 19//3 17//3 20//3
