# Blender v2.79 (sub 0) OBJ File: ''
# www.blender.org
mtllib cornerRightWall.mtl
o Cube.010
v 3.000000 -0.999999 -3.999999
v 3.000001 1.000001 -3.999992
v 4.000001 1.000001 -3.673885
v 4.000000 -0.999999 -3.698868
v 3.000000 6.000000 -3.999990
v 4.000000 6.000000 -3.698859
v 3.000006 1.000005 -9.999987
v 3.000008 1.000005 -10.999987
v 3.000015 6.000005 -10.999984
v 3.000013 6.000003 -9.999984
v 3.000004 -0.999996 -9.999995
v 3.000006 -0.999995 -10.999995
v -3.000000 -0.999999 -3.999999
v 3.000000 -1.000000 -2.000001
v -3.000001 -1.000000 -2.000001
v -2.999999 1.000001 -4.000005
v -3.000000 1.000000 -2.000001
v 2.999999 1.000000 -2.000001
v -2.999994 1.000007 -9.999998
v 3.000002 -1.000007 9.999986
v 4.000000 -1.000000 -2.000001
v 4.000002 -1.000006 9.999986
v -2.999999 -1.000005 9.999986
v -2.999996 -0.999994 -9.999990
v -4.000000 -0.999998 -4.000000
v -3.999996 -0.999993 -9.999990
v -3.999994 1.000007 -9.999998
v -3.999992 1.000007 -10.999998
v -3.999994 -0.999993 -10.999990
v 2.999987 -0.999986 -4.000020
v 3.000015 -0.999984 -10.000013
v 9.000015 -1.000003 -9.999984
v 8.999987 -1.000008 -3.999991
v -3.999998 0.999996 9.999986
v -2.999998 0.999996 9.999986
v -2.999995 5.999997 9.999988
v -3.999995 5.999997 9.999988
v 3.000001 0.999994 9.999986
v -2.999994 -0.999993 -10.999990
v 3.000022 1.000016 -10.000003
v 2.999994 1.000014 -4.000012
v 8.999993 0.999992 -3.999984
v 9.000022 0.999997 -9.999975
v 8.999989 0.999987 -2.999984
v 8.999982 -1.000013 -2.999991
v 9.000017 -1.000003 -10.999984
v 9.000024 0.999998 -10.999975
v 3.999999 1.000000 -2.000001
v 4.000001 0.999994 9.999986
v 3.000000 5.999995 9.999988
v 2.999998 6.000000 -1.999999
v 4.000000 5.999995 9.999988
v 3.999998 6.000000 -1.999999
v -3.999999 1.000002 -4.000005
v -4.000001 -0.999999 -2.000001
v -4.000000 1.000001 -2.000001
v -3.999999 -1.000004 9.999986
v -2.999996 6.000000 -4.000002
v -2.999997 6.000000 -1.999998
v -3.999991 6.000006 -9.999996
v -2.999991 6.000005 -9.999996
v -3.999996 6.000000 -4.000002
v -3.999997 6.000000 -1.999999
v -2.999992 1.000007 -10.999998
v 3.000017 -0.999983 -11.000013
v 3.000024 1.000017 -11.000003
v 3.000031 6.000017 -11.000000
v 9.000031 5.999998 -10.999972
v 9.000029 5.999998 -9.999972
v -3.999987 6.000006 -9.999995
v -2.999987 6.000005 -9.999995
v -2.999985 6.000007 -10.999995
v -3.999985 6.000007 -10.999995
v 3.000029 6.000015 -10.000000
v 3.322258 1.000009 -3.000012
v 3.322252 -0.999991 -3.000020
v 9.000011 5.999991 -3.999964
v 9.000007 5.999988 -2.999964
v 3.000012 6.000013 -3.999992
v 3.322278 6.000010 -2.999992
vt 0.631579 0.750000
vt 0.631579 0.694444
vt 0.657895 0.694444
vt 0.657895 0.750000
vt 0.631579 0.555555
vt 0.657895 0.555555
vt 0.578947 0.611111
vt 0.605263 0.611111
vt 0.605263 0.750000
vt 0.578948 0.750000
vt 0.578948 0.555555
vt 0.605263 0.555555
vt 0.184210 0.388889
vt 0.026316 0.388889
vt 0.026316 0.333333
vt 0.184210 0.333333
vt 0.394737 0.388889
vt 0.394737 0.333333
vt 0.552631 0.333333
vt 0.552632 0.388888
vt 0.552632 0.555555
vt 0.394737 0.555555
vt 0.026316 0.000000
vt 0.000000 0.333333
vt 0.000000 0.000000
vt 0.184210 0.000000
vt 0.184210 0.555555
vt 0.210526 0.388889
vt 0.210526 0.555555
vt 0.394737 0.027778
vt 0.342105 0.027778
vt 0.342105 0.000000
vt 0.394737 0.000000
vt 0.578947 0.972222
vt 0.578947 0.805556
vt 0.736842 0.805556
vt 0.736842 0.972222
vt 0.315789 0.583333
vt 0.315789 0.611111
vt 0.184211 0.611111
vt 0.184211 0.583333
vt 0.026316 0.555555
vt 0.368421 0.777777
vt 0.315789 0.777777
vt 0.368421 0.611111
vt 0.394737 0.000000
vt 0.552632 0.000000
vt 0.210526 0.583333
vt 0.184210 0.583333
vt 0.317635 0.812938
vt 0.317635 0.979604
vt 0.159740 0.979604
vt 0.159740 0.812938
vt 0.184210 0.611111
vt 0.131579 0.611111
vt 0.131579 0.583333
vt 0.184210 0.583333
vt 0.526316 0.750000
vt 0.526316 0.583333
vt 0.578947 0.583333
vt 0.578947 0.750000
vt 0.131579 0.777777
vt 0.184211 0.777778
vt 0.184211 0.805555
vt 0.131579 0.805555
vt 0.684211 0.000000
vt 0.736842 0.000000
vt 0.736842 0.055555
vt 0.684211 0.055555
vt 0.736842 0.388889
vt 0.684211 0.388889
vt 0.368421 0.805555
vt 0.315789 0.805555
vt 0.815790 0.444444
vt 0.815789 0.777777
vt 0.684211 0.777777
vt 0.684211 0.444444
vt 0.000000 0.388889
vt 0.184211 0.805555
vt 0.184211 0.777777
vt 0.368421 0.916666
vt 0.368421 0.583333
vt 0.394737 0.583333
vt 0.394737 0.916666
vt 0.368421 0.972221
vt 0.394737 0.972221
vt 0.815790 0.388889
vt 0.684211 0.388889
vt 0.868421 0.055556
vt 0.868421 0.388889
vt 0.868421 0.000000
vt 0.342105 0.194444
vt 0.394737 0.194444
vt 0.394737 0.250000
vt 0.342105 0.250000
vt 0.394737 0.583333
vt 0.342105 0.583333
vt 0.552632 0.222222
vt 0.552632 0.166666
vt 0.684211 0.166667
vt 0.684211 0.222222
vt 0.210526 0.000000
vt 0.210526 0.333333
vt 0.368421 0.583333
vt 0.342105 0.944444
vt 0.315789 0.944444
vt 0.315789 0.805555
vt 0.342105 0.805556
vt 0.973684 0.722222
vt 0.973684 0.777777
vt 0.947369 0.777777
vt 0.947368 0.722222
vt 0.973684 0.944444
vt 0.947369 0.944444
vt 0.973684 0.388889
vt 0.947369 0.388889
vt 0.210526 0.194444
vt 0.210526 0.027778
vt 0.552632 0.000000
vt 0.684211 0.000000
vt 0.210526 0.583333
vt 0.210526 0.250000
vt 0.552632 0.555555
vt 0.684211 0.555555
vt 0.421053 0.972223
vt 0.421053 0.916667
vt 0.578947 0.916667
vt 0.578947 0.972222
vt 0.394737 0.972223
vt 0.394737 0.916667
vt 0.894737 0.777778
vt 0.894737 0.833334
vt 0.736842 0.833333
vt 0.736842 0.777778
vt 0.578947 0.777778
vt 0.894737 0.972223
vt 0.736842 0.972222
vt 0.526316 0.555555
vt 0.578947 0.555555
vt 0.026316 0.583333
vt 0.000000 0.805555
vt 0.000000 0.777778
vt 0.631579 0.555555
vt 0.631579 0.583333
vt 0.605263 0.583333
vt 0.605263 0.555555
vt 0.868421 0.333333
vt 0.868421 0.166667
vt 0.894737 0.166667
vt 0.894737 0.333333
vt 0.631579 0.750000
vt 0.394737 0.777778
vt 0.421053 0.777778
vt 0.815790 0.583333
vt 0.815790 0.555555
vt 0.947368 0.555555
vt 0.947368 0.583333
vt 0.815790 0.750000
vt 0.815790 0.583333
vt 0.947368 0.583333
vt 0.947368 0.750000
vt 0.394737 0.583333
vt 0.394737 0.555555
vt 0.578947 0.777778
vt 0.815790 0.388889
vt 0.947368 0.388889
vt 0.210526 0.027778
vt 0.210526 0.000000
vt 0.000000 0.861111
vt 0.000000 0.805555
vt 0.157895 0.805555
vt 0.157895 0.861111
vt 0.578947 0.777777
vt 0.526316 0.777777
vt 0.000000 0.611111
vt 0.000000 0.583333
vt 0.736842 1.000000
vt 0.578948 1.000000
vt 0.894737 0.333333
vt 0.894737 0.166667
vt 0.921053 0.166667
vt 0.921053 0.333333
vt 0.157895 1.000000
vt 0.000000 1.000000
vt 0.394737 0.777778
vt 0.394737 0.750000
vt 1.000000 0.000000
vt 1.000000 0.166667
vt 0.868421 0.166667
vt 0.868421 0.000000
vn 0.2992 0.0060 -0.9542
vn 0.2992 -0.0024 -0.9542
vn 1.0000 -0.0000 0.0000
vn -0.0000 -1.0000 -0.0000
vn 0.0000 1.0000 0.0000
vn 0.0000 -0.7071 0.7071
vn -0.4472 -0.8944 -0.0000
vn -1.0000 0.0000 -0.0000
vn -0.7071 -0.0000 -0.7071
vn -0.5774 -0.5774 -0.5773
vn -0.4472 0.0000 0.8944
vn 0.4472 -0.0000 0.8944
vn 0.5774 0.5773 0.5774
vn -0.5774 0.5774 0.5774
vn 0.0000 0.0000 1.0000
vn -0.0000 -0.7071 -0.7071
vn 0.7071 -0.7071 0.0000
vn 0.8944 -0.0000 -0.4472
vn 0.8944 -0.0000 0.4472
vn 0.5774 0.5774 0.5774
vn -0.5773 0.5774 -0.5773
vn 0.5774 0.5774 -0.5773
vn 0.0000 0.0000 -1.0000
vn -0.7071 -0.7071 -0.0000
vn -0.8944 0.0000 -0.4472
vn -0.5773 0.5774 -0.5774
vn 0.5774 0.5773 -0.5773
vn -0.8944 0.0000 0.4472
vn 0.5773 0.5773 0.5774
vn 0.0000 0.7071 0.7071
vn 0.0000 0.7071 -0.7071
vn -0.5774 0.5774 0.5773
vn -0.9800 0.0000 -0.1990
vn -0.7427 -0.6254 0.2393
vn -0.6098 -0.7678 0.1965
vn -0.7628 0.0000 0.6466
vn -0.6682 0.5627 -0.4867
vn -0.4730 0.5955 0.6493
usemtl Material.011
s off
f 1/1/1 2/2/1 3/3/1 4/4/1
f 3/3/2 2/2/2 5/5/2 6/6/2
f 7/7/3 8/8/3 9/9/3 10/10/3
f 7/7/3 11/11/3 12/12/3 8/8/3
s 1
f 13/13/4 1/14/4 14/15/4 15/16/4
f 16/17/5 17/18/5 18/19/5 2/20/5
f 16/17/5 2/20/5 7/21/5 19/22/5
f 20/23/6 14/15/4 21/24/4 22/25/6
f 15/16/4 14/15/4 20/23/4 23/26/4
f 24/27/4 13/13/4 25/28/4 26/29/7
f 26/30/7 27/31/8 28/32/9 29/33/10
f 30/34/4 31/35/4 32/36/4 33/37/4
f 34/38/11 35/39/12 36/40/13 37/41/14
f 1/14/4 13/13/4 24/27/4 11/42/4
f 20/43/15 38/44/15 35/39/15 23/45/15
f 18/19/5 17/18/5 35/46/5 38/47/5
f 24/27/4 26/29/7 29/48/10 39/49/16
f 40/50/5 41/51/5 42/52/5 43/53/5
f 33/54/17 42/55/18 44/56/19 45/57/17
f 41/58/8 40/59/8 31/60/8 30/61/8
f 43/62/19 32/63/17 46/64/17 47/65/18
f 42/55/3 33/54/3 32/63/3 43/62/3
f 4/66/3 3/67/3 48/68/3 21/69/3
f 21/69/3 48/68/3 49/70/3 22/71/3
f 38/44/11 20/43/6 22/72/6 49/73/12
f 18/74/8 38/75/11 50/76/14 51/77/8
f 14/15/4 1/14/4 4/78/4 21/24/4
f 38/44/11 49/73/12 52/79/20 50/80/14
f 51/81/5 50/82/14 52/83/20 53/84/5
f 5/85/5 51/81/5 53/84/5 6/86/5
f 2/87/8 18/74/8 51/77/8 5/88/8
f 49/70/12 48/68/3 53/89/3 52/90/20
f 48/68/3 3/67/3 6/91/3 53/89/3
f 54/92/8 25/93/8 55/94/8 56/95/8
f 25/93/8 54/92/8 27/31/8 26/30/8
f 56/95/8 55/94/8 57/96/8 34/97/8
f 17/98/3 16/99/3 58/100/3 59/101/3
f 15/16/4 23/26/6 57/102/6 55/103/4
f 23/45/6 35/39/12 34/38/11 57/104/6
f 19/105/3 27/106/8 60/107/21 61/108/22
f 13/13/4 15/16/4 55/103/4 25/28/4
f 59/109/5 58/110/5 62/111/5 63/112/5
f 58/110/5 61/113/22 60/114/21 62/111/5
f 36/115/13 59/109/5 63/112/5 37/116/14
f 27/31/8 54/92/8 62/117/8 60/118/21
f 16/99/3 19/119/3 61/120/22 58/100/3
f 56/95/8 34/97/11 37/121/14 63/122/8
f 35/123/12 17/98/3 59/101/3 36/124/13
f 54/92/8 56/95/8 63/122/8 62/117/8
f 39/125/23 64/126/23 8/127/23 12/128/23
f 64/126/23 39/125/16 29/129/10 28/130/9
f 65/131/23 66/132/23 47/133/23 46/134/23
f 32/36/17 31/35/24 65/135/24 46/134/17
f 47/133/18 66/132/25 67/136/26 68/137/27
f 31/60/24 40/59/28 66/138/25 65/139/24
f 11/42/4 24/27/4 39/49/4 12/140/4
f 43/62/19 47/65/18 68/141/27 69/142/29
f 70/143/14 71/144/30 72/145/31 73/146/26
f 74/147/32 69/148/29 68/149/27 67/150/26
f 71/144/5 10/151/5 9/9/5 72/145/5
f 64/126/23 28/130/9 73/152/26 72/153/31
f 27/154/8 19/155/3 71/156/30 70/157/14
f 40/158/28 43/159/19 69/160/29 74/161/32
f 66/138/25 40/59/28 74/162/32 67/163/26
f 8/127/23 64/126/23 72/153/23 9/164/23
f 19/155/15 7/165/15 10/166/15 71/156/15
f 28/32/9 27/31/8 70/167/14 73/168/26
f 75/169/15 76/170/15 45/171/15 44/172/15
f 41/58/33 30/61/34 76/173/35 75/174/36
f 44/56/19 42/55/18 77/175/22 78/176/29
f 30/34/34 33/37/17 45/177/17 76/178/35
f 77/179/22 79/180/37 80/181/38 78/182/29
f 75/169/36 44/172/19 78/183/29 80/184/38
f 41/58/33 75/174/36 80/185/38 79/186/37
f 42/187/18 41/188/33 79/189/37 77/190/22
