# Blender v2.79 (sub 0) OBJ File: 'untitled.blend'
# www.blender.org
mtllib cube4.mtl
o Cube_Cube.001
v -0.981776 -0.855370 0.780475
v -0.981776 1.144630 0.780475
v -0.981776 -0.855370 -1.219525
v -0.125731 -0.278513 -0.251635
v 1.018224 -0.855370 0.780475
v 1.018224 1.144630 0.780475
v 1.018224 -0.855370 -1.219525
v 0.394433 0.959285 -1.240880
vn -0.7991 0.4251 -0.4251
vn -0.4892 0.3616 -0.7937
vn 0.9746 0.1585 -0.1585
vn 0.0000 0.0000 1.0000
vn 0.0000 -1.0000 0.0000
vn -0.5281 0.7341 -0.4269
usemtl mater
s off
f 1//1 2//1 4//1 3//1
f 3//2 4//2 8//2 7//2
f 7//3 8//3 6//3 5//3
f 5//4 6//4 2//4 1//4
f 3//5 7//5 5//5 1//5
f 8//6 4//6 2//6 6//6
