# Blender v2.79 (sub 0) OBJ File: ''
# www.blender.org
mtllib tsectionWall.mtl
o Cube.008
v 3.000006 1.000005 -9.999987
v 3.000004 -0.999995 -9.999995
v 3.000002 -0.999998 -10.999995
v 3.000004 1.000002 -10.999987
v 3.000000 -0.999999 -3.999999
v 3.000001 1.000001 -3.999992
v 4.000001 1.000001 -3.556370
v 4.000000 -0.999999 -3.556378
v 3.000002 6.000002 -10.999992
v 3.000004 6.000004 -9.999992
v 2.999999 6.000000 -3.999997
v 3.999999 6.000000 -3.556376
v -3.000000 -0.999999 -3.999999
v 3.000000 -1.000000 -2.000001
v -3.000001 -1.000000 -2.000001
v -2.999999 1.000001 -4.000005
v -3.000000 1.000000 -2.000001
v 2.999999 1.000000 -2.000001
v -2.999994 1.000005 -9.999998
v 3.000002 -1.000007 9.999986
v 4.000000 -1.000000 -2.000001
v 4.000002 -1.000006 9.999986
v -2.999999 -1.000007 9.999986
v -4.000000 -0.999998 -3.555609
v -3.999999 1.000002 -3.555614
v 2.999987 -0.999986 -4.000020
v 8.999987 -1.000006 -3.999991
v 9.000015 -1.000002 -9.999984
v 3.000015 -0.999983 -10.000013
v -2.999996 -0.999995 -9.999990
v 3.000001 0.999994 9.999986
v -2.999998 0.999994 9.999986
v -9.020823 1.000013 -3.000012
v -3.503329 1.000000 -3.000005
v -3.503331 6.000000 -3.000010
v -9.020824 6.000012 -3.000017
v 3.000022 1.000017 -10.000003
v 9.000022 0.999998 -9.999975
v 8.999993 0.999994 -3.999984
v 2.999994 1.000014 -4.000012
v 8.999982 -1.000010 -2.999991
v 8.999989 0.999989 -2.999984
v 3.000013 -0.999986 -11.000013
v 3.000020 1.000014 -11.000003
v -9.020828 -0.999986 -4.000020
v -9.020800 -0.999983 -10.000013
v -9.020794 1.000017 -10.000003
v -9.020821 1.000014 -4.000012
v -3.503330 -1.000000 -2.999999
v 9.000020 0.999995 -10.999975
v 9.000013 -1.000005 -10.999984
v -4.000001 -0.999999 -2.000001
v -4.000000 1.000001 -2.000001
v -3.999999 -1.000006 9.999986
v -3.999998 0.999994 9.999986
v 3.000018 6.000014 -11.000009
v 3.000020 6.000018 -10.000009
v -9.020830 -0.999987 -3.000020
v -2.999996 1.000002 -10.999998
v -2.999998 6.000002 -11.000004
v 3.999999 1.000000 -2.000001
v 4.000001 0.999994 9.999986
v -3.000001 6.000000 -4.000009
v -3.000002 6.000000 -2.000006
v 3.999997 6.000000 -2.000006
v 3.565068 1.000009 -3.000012
v 3.565061 -0.999991 -3.000020
v 2.999992 6.000013 -4.000017
v 3.565066 6.000010 -3.000017
v -2.999998 -0.999998 -10.999990
v -9.020802 -0.999986 -11.000013
v -9.020796 1.000014 -11.000003
v 2.999997 6.000000 -2.000006
v 9.000020 5.999999 -9.999981
v 9.000018 5.999995 -10.999981
v -9.020823 6.000013 -4.000017
v -3.000000 5.999995 9.999980
v -4.000002 6.000000 -2.000006
v -4.000000 5.999995 9.999980
v -4.000001 6.000000 -3.555618
v 2.999999 5.999995 9.999980
v 3.999999 5.999995 9.999980
v 8.999991 5.999993 -3.999989
v 8.999987 5.999990 -2.999989
v -2.999996 6.000004 -10.000004
v -9.020796 6.000018 -10.000009
v -9.020798 6.000014 -11.000009
vt 0.941294 0.705321
vt 0.941295 0.658299
vt 0.965333 0.658299
vt 0.965333 0.705320
vt 0.313930 0.776343
vt 0.313930 0.823364
vt 0.289822 0.823364
vt 0.289822 0.776343
vt 0.965333 0.822874
vt 0.941295 0.822874
vt 0.313930 0.940918
vt 0.289822 0.940918
vt 0.145162 0.164575
vt 0.289822 0.164575
vt 0.289822 0.211597
vt 0.145162 0.209136
vt 0.459094 0.329150
vt 0.459094 0.282128
vt 0.603754 0.282128
vt 0.603754 0.329149
vt 0.603754 0.470214
vt 0.459094 0.470214
vt 0.289822 0.493725
vt 0.313932 0.211597
vt 0.313932 0.493725
vt 0.145162 0.491264
vt 0.265214 0.893896
vt 0.289822 0.940918
vt 0.265710 0.940918
vt 0.265710 0.893896
vt 0.000000 0.799853
vt 0.000000 0.940917
vt 0.144660 0.940917
vt 0.144660 0.799853
vt 0.893074 0.694360
vt 0.941294 0.694360
vt 0.941294 0.835424
vt 0.893074 0.835424
vt 0.145162 0.023511
vt 0.289822 0.023511
vt 0.941294 0.540746
vt 0.893074 0.540746
vt 0.893074 0.399682
vt 0.941294 0.399682
vt 0.313932 0.175005
vt 0.459094 0.000000
vt 0.603754 0.000000
vt 0.603252 0.916917
vt 0.470225 0.916917
vt 0.470225 0.799364
vt 0.603252 0.799363
vt 0.734265 0.842151
vt 0.734260 0.986810
vt 0.875324 0.986815
vt 0.875329 0.842155
vt 0.893074 0.352661
vt 0.893074 0.376171
vt 0.941294 0.376171
vt 0.941294 0.352661
vt 0.724304 0.671338
vt 0.724304 0.811983
vt 0.772524 0.811984
vt 0.772524 0.671338
vt 0.724304 0.835424
vt 0.772524 0.835425
vt 0.941294 0.211596
vt 0.893074 0.211597
vt 0.000000 0.164575
vt 0.000001 0.023511
vt 0.313933 0.470214
vt 0.313932 0.329150
vt 0.772524 0.328172
vt 0.724304 0.328173
vt 0.724304 0.305643
vt 0.772524 0.305643
vt 0.820744 0.023511
vt 0.820744 0.164575
vt 0.772524 0.164575
vt 0.772524 0.023511
vt 0.941294 0.188086
vt 0.893074 0.188086
vt 0.651974 0.646874
vt 0.603754 0.646874
vt 0.603754 0.610301
vt 0.651974 0.610301
vt 0.603754 0.328173
vt 0.651974 0.328173
vt 0.121052 0.491264
vt 0.121052 0.209136
vt 0.893074 0.376171
vt 0.941294 0.376171
vt 0.603754 0.811984
vt 0.603754 0.835425
vt 0.121052 0.175023
vt 0.603252 0.963938
vt 0.470225 0.963939
vt 0.772524 0.000000
vt 0.820744 0.000000
vt 0.133027 0.188086
vt 0.000000 0.188086
vt 0.048220 0.776343
vt 0.048220 0.635278
vt 0.168770 0.635278
vt 0.168770 0.776343
vt 0.313932 0.470214
vt 0.362152 0.470214
vt 0.362152 0.506697
vt 0.313932 0.506697
vt 0.362152 0.787987
vt 0.313932 0.787987
vt 0.941294 0.564257
vt 0.893074 0.564257
vt 0.863338 0.233305
vt 0.863338 0.280187
vt 0.742788 0.280187
vt 0.742788 0.233305
vt 0.482702 0.470214
vt 0.482702 0.506697
vt 0.734790 0.882446
vt 0.734790 0.835425
vt 0.603754 0.835425
vt 0.603754 0.882446
vt 0.772524 0.646875
vt 0.724304 0.646874
vt 0.144660 0.776343
vt 0.013624 0.776343
vt 0.603754 0.646875
vt 0.603754 0.671338
vt 0.000000 0.635278
vt 0.000000 0.776343
vt 0.458592 0.952562
vt 0.458592 0.905541
vt 0.313932 0.905541
vt 0.313932 0.952562
vt 0.000000 0.493725
vt 0.048220 0.493725
vt 0.603252 0.470214
vt 0.603252 0.517235
vt 0.482702 0.517235
vt 0.482702 0.470214
vt 0.000000 0.964428
vt 0.144660 0.964428
vt 0.772524 0.188086
vt 0.772524 0.211596
vt 0.145162 0.000001
vt 0.289822 0.000000
vt 0.145631 0.893896
vt 0.145631 0.776343
vt 0.265214 0.776343
vt 0.000001 0.000000
vt 0.820744 0.188085
vt 0.772524 0.188086
vt 0.965404 0.329149
vt 0.965404 0.611278
vt 0.941294 0.611278
vt 0.941294 0.329149
vt 0.965404 0.658299
vt 0.941294 0.647851
vt 0.965333 0.799853
vt 0.965333 0.658299
vt 0.989443 0.658299
vt 0.989443 0.788019
vt 0.941294 0.282128
vt 0.941294 0.000000
vt 0.965404 0.000000
vt 0.965404 0.282128
vt 0.941294 0.329149
vt 0.965404 0.318720
vt 0.989514 0.141064
vt 0.965404 0.154350
vt 0.965404 0.282129
vt 0.989514 0.282129
vt 0.313430 0.635278
vt 0.313430 0.776343
vt 0.289320 0.776342
vt 0.289320 0.635278
vt 0.313430 0.493725
vt 0.289320 0.493725
vt 0.965404 0.141064
vt 0.989514 0.141064
vt 0.989514 0.000000
vt 0.965404 0.000000
vt 0.772524 0.610301
vt 0.772524 0.646874
vt 0.772524 0.564257
vt 0.772524 0.540746
vt 0.891229 0.694668
vt 0.772524 0.694360
vt 0.772217 0.833271
vt 0.890921 0.833579
vt 0.603754 0.328173
vt 0.603754 0.305643
vt 0.772524 0.328173
vt 0.941294 0.164575
vt 0.941294 0.188086
vt 0.168770 0.493725
vt 0.168770 0.776343
vt 0.168770 0.634789
vt 0.289320 0.634789
vt 0.289320 0.776343
vt 0.941294 0.000000
vt 0.941294 0.023511
vt 0.603754 1.000000
vt 0.734790 1.000000
vt 0.482702 0.787987
vt 1.000000 0.835425
vt 0.879450 0.835425
vt 0.879450 0.976489
vt 1.000000 0.976489
vt 0.724305 0.000000
vt 0.724304 0.281291
vt 0.603754 0.281291
vt 0.603755 0.000000
vt 0.772524 0.399682
vt 0.772524 0.376171
vt 0.168770 0.493725
vt 0.289320 0.493725
vt 0.458593 0.787987
vt 0.313933 0.787987
vt 0.603252 0.799363
vt 0.482702 0.799363
vt 0.265710 0.776343
vt 0.772524 0.352661
vt 0.772524 0.376171
vn 1.0000 -0.0000 -0.0000
vn 0.4055 0.0000 -0.9141
vn -0.0000 -1.0000 -0.0000
vn -0.0000 1.0000 0.0000
vn 0.0000 -0.7071 0.7071
vn -0.4061 -0.0000 -0.9138
vn -0.2872 -0.7071 -0.6462
vn -0.7039 -0.5435 -0.4574
vn -0.8385 -0.0000 -0.5449
vn -1.0000 0.0000 -0.0000
vn 0.0000 0.0000 1.0000
vn -0.8944 0.0000 0.4472
vn 0.5246 0.0000 0.8513
vn 0.4173 0.6059 0.6773
vn -0.5774 0.5774 0.5773
vn 0.8944 -0.0000 -0.4472
vn 0.8944 -0.0000 0.4472
vn 0.7071 -0.7071 0.0000
vn -0.8944 0.0000 -0.4472
vn -0.7071 -0.7071 0.0000
vn 0.7307 -0.5752 0.3678
vn 0.8932 0.0000 0.4496
vn 0.4173 -0.6059 0.6773
vn 0.4472 0.0000 0.8944
vn -0.4472 0.0000 0.8944
vn -0.5773 0.5774 0.5773
vn -0.5773 0.5773 -0.5774
vn -0.1943 -0.7071 -0.6799
vn -0.6846 -0.5774 -0.4449
vn 0.0000 -0.0000 -1.0000
vn -0.7224 -0.5581 0.4082
vn -0.5239 -0.7987 0.2960
vn -0.6596 0.0000 0.7516
vn 0.0000 0.0000 0.0000
vn -0.3996 0.6093 0.6848
vn -0.7185 0.5550 -0.4193
vn 0.5774 0.5773 -0.5774
vn 0.5774 0.5774 0.5773
vn -0.5773 0.5774 -0.5774
vn 0.5774 0.5774 0.5774
vn -0.5774 0.5774 0.5774
vn -0.3274 0.5916 -0.7368
vn -0.6692 0.6026 -0.4349
vn 0.7307 0.5752 0.3678
vn 0.5773 0.5773 0.5774
vn 0.5774 0.5773 -0.5773
vn -0.5774 0.5773 -0.5774
usemtl Material.008
s off
f 1/1/1 2/2/1 3/3/1 4/4/1
f 5/5/2 6/6/2 7/7/2 8/8/2
f 1/1/1 4/4/1 9/9/1 10/10/1
f 7/7/2 6/6/2 11/11/2 12/12/2
s 1
f 13/13/3 5/14/3 14/15/3 15/16/3
f 16/17/4 17/18/4 18/19/4 6/20/4
f 16/17/4 6/20/4 1/21/4 19/22/4
f 20/23/5 14/15/3 21/24/3 22/25/5
f 15/16/3 14/15/3 20/23/3 23/26/3
f 16/27/6 13/28/7 24/29/8 25/30/9
f 26/31/3 29/32/3 28/33/3 27/34/3
f 13/35/10 16/36/10 19/37/10 30/38/10
f 5/14/3 13/13/3 30/39/3 2/40/3
f 20/41/11 31/42/11 32/43/11 23/44/11
f 14/15/3 5/14/3 8/45/3 21/24/3
f 18/19/4 17/18/4 32/46/4 31/47/4
f 33/48/12 34/49/13 35/50/14 36/51/15
f 37/52/4 40/53/4 39/54/4 38/55/4
f 39/56/16 42/57/17 41/58/18 27/59/18
f 40/60/10 37/61/10 29/62/10 26/63/10
f 37/61/12 44/64/19 43/65/20 29/62/20
f 39/56/1 27/59/1 28/66/1 38/67/1
f 45/68/3 46/69/3 30/39/3 13/13/3
f 47/70/4 48/71/4 16/17/4 19/22/4
f 13/72/21 16/73/22 34/74/13 49/75/23
f 48/76/10 47/77/10 46/78/10 45/79/10
f 28/66/18 51/80/18 50/81/16 38/67/17
f 25/82/9 24/83/8 52/84/10 53/85/10
f 53/85/10 52/84/10 54/86/10 55/87/10
f 15/16/3 23/26/5 54/88/5 52/89/3
f 23/44/5 32/43/24 55/90/25 54/91/5
f 37/61/12 57/92/26 56/93/27 44/64/19
f 13/13/28 15/16/3 52/89/3 24/94/29
f 33/48/11 58/95/11 49/96/23 34/49/13
f 48/76/19 45/79/20 58/97/20 33/98/12
f 45/68/20 13/13/21 49/99/23 58/100/20
f 4/101/30 59/102/30 60/103/30 9/104/30
f 8/105/1 7/106/1 61/107/1 21/108/1
f 21/108/1 61/107/1 62/109/1 22/110/1
f 31/42/25 20/41/5 22/111/5 62/112/24
f 17/113/1 16/114/1 63/115/1 64/116/1
f 61/107/1 7/106/1 12/117/1 65/118/1
f 66/119/11 67/120/11 41/121/11 42/122/11
f 26/63/31 67/123/32 66/124/33 40/60/34
f 27/34/18 41/125/18 67/126/32 26/31/31
f 66/124/33 69/127/35 68/128/36 40/60/34
f 70/129/30 59/102/30 4/101/30 3/130/30
f 43/131/30 44/132/30 50/133/30 51/134/30
f 71/135/30 72/136/30 59/102/30 70/129/30
f 6/137/10 18/138/10 73/139/10 11/140/10
f 29/32/20 43/141/20 51/142/18 28/33/18
f 50/81/16 75/143/37 74/144/38 38/67/17
f 2/40/3 30/39/3 70/145/3 3/146/3
f 16/27/30 48/147/19 76/148/39 63/149/30
f 30/39/3 46/69/20 71/150/20 70/145/3
f 46/78/20 47/77/12 72/151/19 71/152/20
f 77/153/40 64/154/4 78/155/4 79/156/41
f 64/154/4 63/157/42 80/158/43 78/155/4
f 63/159/44 76/160/39 36/161/15 35/162/14
f 73/163/4 81/164/41 82/165/40 65/166/4
f 11/167/4 73/163/4 65/166/4 12/168/4
f 68/169/36 69/170/35 84/171/45 83/172/46
f 85/173/4 10/174/4 9/175/4 60/176/4
f 86/177/26 85/173/4 60/176/4 87/178/47
f 74/179/38 75/180/37 56/181/27 57/182/26
f 25/82/9 53/85/10 78/183/10 80/184/43
f 31/42/25 62/112/24 82/185/40 81/186/41
f 38/187/17 74/188/38 57/189/26 37/190/12
f 34/74/13 16/73/22 63/191/44 35/192/14
f 53/85/10 55/87/25 79/193/41 78/183/10
f 72/151/19 47/77/12 86/194/26 87/195/47
f 59/102/30 72/136/19 87/196/47 60/103/30
f 47/197/12 19/198/11 85/199/11 86/200/26
f 48/76/19 33/98/12 36/201/15 76/202/39
f 42/122/17 84/203/45 69/204/35 66/119/33
f 62/109/24 61/107/1 65/118/1 82/205/40
f 40/206/34 68/207/36 83/208/46 39/209/16
f 32/210/24 17/211/1 64/212/1 77/213/40
f 55/90/25 32/43/24 77/214/40 79/215/41
f 19/198/11 1/216/11 10/217/11 85/199/11
f 44/132/19 56/218/27 75/219/37 50/133/16
f 18/138/10 31/220/25 81/221/41 73/139/10
f 16/27/6 25/30/9 80/222/43 63/149/42
f 39/56/16 83/223/46 84/224/45 42/57/17
